<?xml version="1.0" standalone="no"?><!DOCTYPE svg PUBLIC "-//W3C//DTD SVG 1.1//EN" "http://www.w3.org/Graphics/SVG/1.1/DTD/svg11.dtd"><svg class="icon" width="200px" height="200.00px" viewBox="0 0 1024 1024" version="1.1" xmlns="http://www.w3.org/2000/svg"><path fill="#333333" d="M837.7088 183.8592C750.3616 96.4608 634.2144 48.384 510.7456 48.384c-123.4944 0-239.616 48.0768-326.912 135.4752-87.3984 87.296-135.4752 203.392-135.4752 326.912 0 123.4944 48.0768 239.6416 135.4752 326.912 87.3472 87.3984 203.392 135.4752 326.912 135.4752s239.6416-48.128 326.9632-135.4752c87.296-87.296 135.424-203.392 135.424-326.912C973.1328 387.2512 925.0048 271.1552 837.7088 183.8592zM537.2416 796.1344c-6.9376 6.8864-16.6912 10.9568-26.5472 10.9568-9.856 0-19.5584-4.0704-26.5472-10.9568-6.8864-7.04-10.9568-16.7936-10.9568-26.496 0-9.9072 4.0704-19.6608 10.9568-26.5472 6.9888-6.9376 16.6912-11.008 26.5472-11.008 9.856 0 19.6096 4.0704 26.5472 11.008 6.8864 6.8864 10.9056 16.64 10.9056 26.5472C548.1472 779.392 544.128 789.1712 537.2416 796.1344zM585.0112 529.7664c-31.7696 25.856-47.5904 55.4496-47.5904 88.832l-0.3328 10.2656-0.0512 0.1024c-1.1008 14.3872-13.0816 25.6512-27.6992 25.6512-15.36 0-27.8016-12.4416-27.8016-27.8016 0-0.8704 0-1.664 0.1024-2.4832l0-0.1024c0-32.4096 3.0976-55.9104 9.2928-70.5024 6.2464-14.5152 20.4032-31.6672 42.5472-51.456l22.5536-20.1216c30.336-27.3152 45.4912-54.2464 45.4912-80.768 0-22.7584-8.192-41.5232-24.5504-56.0384-16.3584-14.6176-37.0432-21.9136-62.2336-21.9136-65.1008 0-97.8944 37.3504-98.3552 112l0 0.2816c0 0 0 0.1024-0.0512 0.5632 0 0 0 0.4096 0 0.7424-0.7424 15.8208-13.7216 28.3392-29.7216 28.3392-16.0512 0-29.0816-12.4928-29.824-28.3392l-0.1024 0c0-50.304 14.464-89.984 43.2384-119.168 28.8512-29.2352 68.0704-43.7504 117.632-43.7504 43.7504 0 79.2064 12.16 106.3424 36.352 27.1872 24.192 40.7296 55.7056 40.7808 94.5152C664.7296 444.5952 638.1824 486.2464 585.0112 529.7664z" /></svg>